HIERARCHY
ROOT Pelvis
{
	OFFSET 0.000000 0.000000 0.000000
	CHANNELS 6 Xposition Yposition Zposition Xrotation Yrotation Zrotation
	JOINT LeftUpLeg_virtual
	{
		OFFSET 0.000000 0.000000 0.000000
		CHANNELS 3 Xrotation Yrotation Zrotation
		JOINT LeftUpLeg
		{
			OFFSET 18.735201 -5.666702 -4.541200
			CHANNELS 3 Xrotation Yrotation Zrotation
			JOINT LeftLeg
			{
				OFFSET -0.021200 -31.938179 0.493100
				CHANNELS 3 Xrotation Yrotation Zrotation
				JOINT LeftFoot
				{
					OFFSET 0.021200 -31.938179 -4.336299
					CHANNELS 3 Xrotation Yrotation Zrotation
					JOINT LeftToeBase
					{
						OFFSET 0.943001 -26.722000 15.023500
						CHANNELS 3 Xrotation Yrotation Zrotation
						End Site
						{
							OFFSET 0 0 0
						}
					}
				}
			}
		}
	}
	JOINT RightUpLeg_virtual
	{
		OFFSET 0.000000 0.000000 0.000000
		CHANNELS 3 Xrotation Yrotation Zrotation
		JOINT RightUpLeg
		{
			OFFSET -18.735201 -5.666702 -4.541200
			CHANNELS 3 Xrotation Yrotation Zrotation
			JOINT RightLeg
			{
				OFFSET 0.018946 -31.938133 0.493100
				CHANNELS 3 Xrotation Yrotation Zrotation
				JOINT RightFoot
				{
					OFFSET -0.018946 -31.938126 -4.336299
					CHANNELS 3 Xrotation Yrotation Zrotation
					JOINT RightToeBase
					{
						OFFSET -0.943001 -26.722004 15.023500
						CHANNELS 3 Xrotation Yrotation Zrotation
						End Site
						{
							OFFSET 0 0 0
						}
					}
				}
			}
		}
	}
	JOINT Hips_virtual
	{
		OFFSET 0.000000 0.000000 0.000000
		CHANNELS 3 Xrotation Yrotation Zrotation
		JOINT Hips
		{
			OFFSET -0.000000 -0.000000 -0.000000
			CHANNELS 3 Xrotation Yrotation Zrotation
			JOINT Spine
			{
				OFFSET 0.000000 10.199997 -0.299500
				CHANNELS 3 Xrotation Yrotation Zrotation
				JOINT Spine1
				{
					OFFSET 0.000000 11.900002 -1.516600
					CHANNELS 3 Xrotation Yrotation Zrotation
					JOINT Spine2
					{
						OFFSET 0.000000 13.600006 -2.842500
						CHANNELS 3 Xrotation Yrotation Zrotation
						JOINT Neck_virtual
						{
							OFFSET 0.000000 0.000000 0.000000
							CHANNELS 3 Xrotation Yrotation Zrotation
							JOINT Neck
							{
								OFFSET 0.000000 9.624100 -2.890100
								CHANNELS 3 Xrotation Yrotation Zrotation
								JOINT Head
								{
									OFFSET 0.000000 14.068802 -1.351900
									CHANNELS 3 Xrotation Yrotation Zrotation
									End Site
									{
										OFFSET 0 0 0
									}
								}
							}
						}
						JOINT LeftShoulder_virtual
						{
							OFFSET 0.000000 0.000000 0.000000
							CHANNELS 3 Xrotation Yrotation Zrotation
							JOINT LeftShoulder
							{
								OFFSET 15.263000 10.923401 -0.547700
								CHANNELS 3 Xrotation Yrotation Zrotation
								JOINT LeftArm
								{
									OFFSET 25.438599 -2.830597 -13.032500
									CHANNELS 3 Xrotation Yrotation Zrotation
									JOINT LeftForeArm
									{
										OFFSET 29.960503 0.000000 0.000000
										CHANNELS 3 Xrotation Yrotation Zrotation
										JOINT LeftHand
										{
											OFFSET 27.849251 0.000000 0.000000
											CHANNELS 3 Xrotation Yrotation Zrotation
											End Site
											{
												OFFSET 0 0 0
											}
										}
									}
								}
							}
						}
						JOINT RightShoulder_virtual
						{
							OFFSET 0.000000 0.000000 0.000000
							CHANNELS 3 Xrotation Yrotation Zrotation
							JOINT RightShoulder
							{
								OFFSET -15.263000 10.923401 -0.547700
								CHANNELS 3 Xrotation Yrotation Zrotation
								JOINT RightArm
								{
									OFFSET -25.438599 -2.830597 -13.032500
									CHANNELS 3 Xrotation Yrotation Zrotation
									JOINT RightForeArm
									{
										OFFSET -29.960503 0.000000 0.000000
										CHANNELS 3 Xrotation Yrotation Zrotation
										JOINT RightHand
										{
											OFFSET -27.849251 0.000000 0.000000
											CHANNELS 3 Xrotation Yrotation Zrotation
											End Site
											{
												OFFSET 0 0 0
											}
										}
									}
								}
							}
						}
					}
				}
			}
		}
	}
}
MOTION
Frames: 10
Frame Time: 0.03333333
-1.279045 93.970093 3.565247 0.000000 0.000000 0.000000 -9.053131 -5.173762 7.663657 15.263702 13.671210 -14.309135 -0.625306 -0.176033 -0.107384 -4.422428 -0.399912 4.790452 0.000000 0.000000 0.000000 -9.053131 -5.173762 7.663657 -10.534678 -11.799390 -26.938273 35.176434 1.790500 0.523256 -15.375674 -10.912452 10.820965 0.000000 0.000000 0.000000 -9.053131 -5.173762 7.663657 0.000000 0.000000 0.000000 2.391675 1.139923 -4.355750 4.666352 1.729998 -2.802045 0.000000 0.000000 0.000000 4.685184 1.690012 -2.793393 -0.559099 -0.089922 -1.006789 0.000000 0.000000 0.000000 4.685184 1.690012 -2.793393 4.034698 -13.464703 -7.420042 5.772113 3.721069 -60.112905 11.491839 -25.077070 -5.820599 0.000000 0.000000 0.000000 4.685184 1.690012 -2.793393 3.919268 12.466705 7.900377 -3.939680 -11.622637 68.565073 15.857368 12.603590 4.140663 0.000000 0.000000 0.000000 
-1.332605 94.108368 3.594290 0.000000 0.000000 0.000000 -9.137857 -5.134937 7.663961 13.555488 14.063044 -13.892559 2.217297 -0.203160 -0.131581 -4.559112 -0.315302 5.008337 0.000000 0.000000 0.000000 -9.137857 -5.134937 7.663961 -10.395500 -11.842634 -26.670248 35.042214 1.552211 0.490284 -15.312511 -10.838548 10.258246 0.000000 0.000000 0.000000 -9.137857 -5.134937 7.663961 0.000000 0.000000 0.000000 2.515527 1.130763 -4.423522 4.913430 1.686253 -2.761732 0.000000 0.000000 0.000000 4.931896 1.643645 -2.752655 -0.715466 -0.075673 -1.056554 0.000000 0.000000 0.000000 4.931896 1.643645 -2.752655 3.979139 -13.925286 -7.123387 8.808450 0.870773 -59.276166 9.104180 -28.163812 -6.388904 0.000000 0.000000 0.000000 4.931896 1.643645 -2.752655 3.867134 12.882175 7.705447 -3.144261 -10.625765 68.163102 17.220650 14.146992 3.950146 0.000000 0.000000 0.000000 
-1.414065 94.305252 3.669878 0.000000 0.000000 0.000000 -9.318358 -5.010106 7.523251 11.232935 14.531279 -13.156269 6.006142 -0.217561 -0.159348 -4.512326 -0.182777 5.329194 0.000000 0.000000 0.000000 -9.318358 -5.010106 7.523251 -10.214865 -11.824878 -26.528743 34.900474 1.534085 0.487187 -14.270627 -10.913349 10.520461 0.000000 0.000000 0.000000 -9.318358 -5.010106 7.523251 0.000000 0.000000 0.000000 2.754855 1.091559 -4.454167 5.395335 1.608660 -2.665655 0.000000 0.000000 0.000000 5.413140 1.560643 -2.655692 -0.991792 -0.051384 -1.150553 0.000000 0.000000 0.000000 5.413140 1.560643 -2.655692 3.884198 -14.711370 -6.633770 14.149920 -3.920244 -57.208121 5.105489 -33.594968 -7.629387 0.000000 0.000000 0.000000 5.413140 1.560643 -2.655692 3.778978 13.585870 7.369179 -1.561298 -8.690971 67.291119 19.661266 17.108686 3.253689 0.000000 0.000000 0.000000 
-1.466537 94.575089 3.865028 0.000000 0.000000 0.000000 -9.537430 -4.834992 7.294109 10.159321 14.689493 -12.632147 7.674986 -0.225543 -0.169015 -3.788817 -0.082760 5.645708 0.000000 0.000000 0.000000 -9.537430 -4.834992 7.294109 -9.884990 -12.042295 -26.449812 34.406187 1.569320 0.490119 -12.714127 -10.856301 11.060626 0.000000 0.000000 0.000000 -9.537430 -4.834992 7.294109 0.000000 0.000000 0.000000 3.014714 1.054741 -4.497965 5.918541 1.537689 -2.526866 0.000000 0.000000 0.000000 5.935775 1.483429 -2.515835 -1.240440 -0.035593 -1.246440 0.000000 0.000000 0.000000 5.935775 1.483429 -2.515835 3.794427 -15.397649 -6.279941 19.088015 -7.935481 -54.787942 2.088977 -38.551083 -8.015108 0.000000 0.000000 0.000000 5.935775 1.483429 -2.515835 3.699333 14.186512 7.099045 0.249530 -6.540143 66.152049 22.073763 20.344050 2.093891 0.000000 0.000000 0.000000 
-1.527856 94.905869 4.101379 0.000000 0.000000 0.000000 -9.798312 -4.614840 7.012989 9.233499 14.698888 -12.034061 8.996869 -0.223269 -0.173012 -2.754950 0.051857 5.825864 0.000000 0.000000 0.000000 -9.798312 -4.614840 7.012989 -9.541934 -12.336569 -26.403454 33.670941 1.621418 0.494368 -10.627320 -10.717544 11.826041 0.000000 0.000000 0.000000 -9.798312 -4.614840 7.012989 -0.000001 0.000000 0.000000 3.325653 1.011856 -4.565893 6.545348 1.462753 -2.356483 0.000000 0.000000 0.000000 6.561995 1.400467 -2.344019 -1.519969 -0.018834 -1.362586 0.000000 0.000000 0.000000 6.561995 1.400467 -2.344019 3.718492 -16.068570 -5.869252 24.385457 -11.673126 -51.699679 -1.015579 -43.851652 -7.921000 0.000000 0.000000 0.000000 6.561995 1.400467 -2.344019 3.632212 14.772950 6.764338 2.374865 -4.131469 64.732892 24.567489 23.972120 0.180344 0.000000 0.000000 0.000000 
-1.619754 95.276680 4.299768 0.000000 0.000000 0.000000 -10.072925 -4.358152 6.719113 8.271778 14.490847 -11.313489 10.149697 -0.221391 -0.175832 -1.472942 0.329633 5.658551 0.000000 0.000000 0.000000 -10.072925 -4.358152 6.719113 -9.345085 -12.587836 -26.425129 32.989551 1.697264 0.501859 -7.976910 -10.536897 12.829365 0.000000 0.000000 0.000000 -10.072925 -4.358152 6.719113 0.000001 0.000000 0.000000 3.686336 0.958453 -4.664986 7.274278 1.384789 -2.171514 0.000000 0.000000 0.000000 7.290355 1.312393 -2.157117 -1.840590 0.007407 -1.501980 0.000000 0.000000 0.000000 7.290355 1.312393 -2.157117 3.680612 -16.663023 -5.310801 29.849467 -14.849226 -48.137725 -4.445199 -49.374498 -7.814094 0.000000 0.000000 0.000000 7.290355 1.312393 -2.157117 3.597685 15.303273 6.297462 4.748390 -1.646024 63.144778 26.917938 27.810198 -2.514875 0.000000 0.000000 0.000000 
-1.730808 95.670227 4.415989 0.000000 0.000000 0.000000 -10.401704 -4.076233 6.404408 7.367104 14.120772 -10.566366 11.068217 -0.220957 -0.177236 0.027275 0.739434 5.364178 0.000000 0.000000 0.000000 -10.401704 -4.076233 6.404408 -9.101265 -12.820204 -26.467366 32.187772 1.782824 0.510126 -5.017319 -10.307041 14.054963 0.000000 0.000000 0.000000 -10.401704 -4.076233 6.404408 0.000000 0.000000 0.000000 4.095544 0.899920 -4.776581 8.102735 1.308806 -1.967463 0.000000 0.000000 0.000000 8.118222 1.224252 -1.950584 -2.199668 0.038244 -1.666858 0.000000 0.000000 0.000000 8.118222 1.224252 -1.950584 3.677921 -17.189238 -4.621434 35.375565 -17.290677 -44.197232 -8.508780 -55.069684 -8.002274 0.000000 0.000000 0.000000 8.118222 1.224252 -1.950584 3.594155 15.776871 5.711523 7.321290 0.823306 61.355931 28.871479 31.893534 -5.417112 0.000000 0.000000 0.000000 
-1.854325 96.066101 4.430637 0.000000 0.000000 0.000000 -10.875265 -3.779241 6.080548 6.531196 13.563283 -9.804749 11.899428 -0.232987 -0.178382 1.673954 1.245499 4.967023 0.000000 0.000000 0.000000 -10.875265 -3.779241 6.080548 -8.543695 -13.055967 -26.538948 31.037729 1.872034 0.517353 -1.856124 -10.074861 15.615447 0.000000 0.000000 0.000000 -10.875265 -3.779241 6.080548 0.000000 0.000000 0.000000 4.565764 0.841211 -4.895013 9.055611 1.232536 -1.736987 0.000000 0.000000 0.000000 9.070377 1.133015 -1.716823 -2.614999 0.074388 -1.869710 0.000000 0.000000 0.000000 9.070377 1.133015 -1.716823 3.734711 -17.617469 -3.694098 40.714864 -18.890299 -40.235490 -13.936193 -60.885058 -9.167044 0.000000 0.000000 0.000000 9.070377 1.133015 -1.716823 3.646143 16.158976 4.911698 10.075208 3.181059 59.480996 30.229413 36.249443 -8.811223 0.000000 0.000000 0.000000 
-1.990285 96.461105 4.412588 0.000000 0.000000 0.000000 -11.316572 -3.475394 5.730057 5.765441 12.985310 -9.044951 12.499833 -0.249459 -0.178068 3.425994 1.727565 4.548783 0.000000 0.000000 0.000000 -11.316572 -3.475394 5.730057 -8.137518 -13.177823 -26.537295 30.044732 1.952743 0.523855 1.226219 -9.709303 17.179358 0.000000 0.000000 0.000000 -11.316572 -3.475394 5.730057 -0.000001 0.000000 0.000000 5.054464 0.780823 -4.988384 10.048705 1.179354 -1.506793 0.000000 0.000000 0.000000 10.062918 1.064182 -1.482888 -3.036719 0.110669 -2.083627 0.000000 0.000000 0.000000 10.062918 1.064182 -1.482888 3.792829 -17.998877 -2.810014 45.750260 -19.635078 -36.192278 -21.232053 -66.513707 -12.196913 0.000000 0.000000 0.000000 10.062918 1.064182 -1.482888 3.695866 16.509325 4.154535 12.858304 5.242506 57.359498 31.447031 40.722213 -12.921409 0.000000 0.000000 0.000000 
-2.146225 96.831841 4.230524 0.000000 0.000000 0.000000 -11.557941 -3.186298 5.342058 4.836980 12.606274 -8.245805 12.894555 -0.264190 -0.175898 5.246084 2.015111 4.175487 0.000000 0.000000 0.000000 -11.557941 -3.186298 5.342058 -8.390692 -12.390125 -26.303450 29.948856 2.003646 0.530325 4.034352 -9.232464 18.342671 0.000000 0.000000 0.000000 -11.557941 -3.186298 5.342058 0.000000 0.000000 0.000000 5.513289 0.719699 -5.037986 10.985780 1.174707 -1.304919 0.000000 0.000000 0.000000 10.999618 1.036548 -1.274782 -3.430363 0.121807 -2.294378 0.000000 0.000000 0.000000 10.999618 1.036548 -1.274782 3.807830 -18.368385 -2.206130 50.359080 -19.666883 -32.052418 -31.676194 -71.725845 -18.589396 0.000000 0.000000 0.000000 10.999618 1.036548 -1.274782 3.700509 16.843817 3.654788 15.527125 6.910512 55.004118 32.289883 45.269357 -17.155835 0.000000 0.000000 0.000000 
